<svg xmlns="http://www.w3.org/2000/svg" viewBox="0 0 540 180" fill="none">
  
  <g transform="translate(10, 10) scale(0.72)">
    <circle cx="110" cy="110" r="108" fill="#fdfaf3" stroke="#c85226" stroke-width="2"></circle>
    <path d="M 60 100 L 110 50 L 160 100 Z" fill="#c85226"></path>
    <rect x="68" y="100" width="84" height="78" fill="#fae3d8" stroke="#c85226" stroke-width="3"></rect>
    <g stroke="#4a1c10" stroke-width="3" stroke-linecap="round">
      <line x1="80" y1="100" x2="80" y2="178"></line>
      <line x1="140" y1="100" x2="140" y2="178"></line>
      <line x1="68" y1="138" x2="152" y2="138"></line>
      <line x1="80" y1="100" x2="140" y2="138"></line>
      <line x1="140" y1="100" x2="80" y2="138"></line>
      <line x1="80" y1="138" x2="140" y2="178"></line>
      <line x1="140" y1="138" x2="80" y2="178"></line>
    </g>
    <rect x="100" y="148" width="20" height="30" fill="#e3a528" stroke="#4a1c10" stroke-width="2"></rect>
    <circle cx="135" cy="80" r="6" fill="#e3a528"></circle>
  </g>

  
  <text x="180" y="92" font-family="Newsreader, Georgia, serif" font-weight="600" font-size="42" fill="#1d1a10" letter-spacing="-1">La Fabrique</text>
  <text x="180" y="130" font-family="Public Sans, sans-serif" font-weight="500" font-size="20" fill="#c85226" letter-spacing="6">B E N F E L D</text>
  <line x1="180" y1="142" x2="490" y2="142" stroke="#e3a528" stroke-width="2"></line>
  <text x="180" y="160" font-family="Public Sans, sans-serif" font-weight="400" font-size="11" fill="#6f6553" letter-spacing="2.5">ASSOCIATION CITOYENNE · ALSACE</text>
</svg>